<svg xmlns="http://www.w3.org/2000/svg" width="1000" height="320" viewBox="0 0 1000 320">
  <rect width="100%" height="100%" fill="#ffffff"/>
  <text x="60" y="24" font-family="Arial" font-size="18" font-weight="bold">960x540_1900k VMAF Over Time</text>
  <text x="60" y="308" font-family="Arial" font-size="12" fill="#555">Mean=94.545 Min=89.960 Max=98.222</text>
  <line x1="60" y1="40" x2="60" y2="276" stroke="#333" stroke-width="1"/>
  <line x1="60" y1="276" x2="976" y2="276" stroke="#333" stroke-width="1"/>
  <line x1="60" y1="63.6" x2="976" y2="63.6" stroke="#ddd" stroke-width="1"/>
  <line x1="60" y1="87.2" x2="976" y2="87.2" stroke="#eee" stroke-width="1"/>
  <line x1="60" y1="158.0" x2="976" y2="158.0" stroke="#eee" stroke-width="1"/>
  <text x="12" y="44" font-family="Arial" font-size="12">100</text>
  <text x="20" y="67.6" font-family="Arial" font-size="12">90</text>
  <text x="20" y="91.2" font-family="Arial" font-size="12">80</text>
  <text x="20" y="162.0" font-family="Arial" font-size="12">50</text>
  <text x="60" y="300" font-family="Arial" font-size="12">00:00.000</text>
  <text x="924" y="300" font-family="Arial" font-size="12">00:19.987</text>
  <polyline points="60.00,55.03 60.76,55.29 61.53,55.06 62.29,55.14 63.06,55.26 63.82,53.76 64.59,54.40 65.35,54.64 66.12,54.07 66.88,52.42 67.65,53.82 68.41,53.76 69.18,53.36 69.94,52.07 70.70,53.96 71.47,54.26 72.23,53.42 73.00,53.87 73.76,52.34 74.53,52.98 75.29,53.38 76.06,52.71 76.82,52.73 77.59,53.28 78.35,53.04 79.12,52.92 79.88,52.07 80.64,52.91 81.41,52.71 82.17,52.23 82.94,51.79 83.70,52.71 84.47,52.01 85.23,52.69 86.00,51.76 86.76,52.66 87.53,52.61 88.29,53.33 89.06,52.79 89.82,52.13 90.58,52.87 91.35,52.11 92.11,52.36 92.88,51.27 93.64,52.89 94.41,51.98 95.17,52.52 95.94,52.45 96.70,51.53 97.47,52.00 98.23,52.78 98.99,52.81 99.76,52.13 100.52,51.27 101.29,52.22 102.05,52.15 102.82,53.07 103.58,52.51 104.35,51.73 105.11,52.39 105.88,52.61 106.64,52.25 107.41,52.27 108.17,51.64 108.93,52.54 109.70,52.66 110.46,53.22 111.23,51.84 111.99,53.26 112.76,53.28 113.52,52.95 114.29,53.00 115.05,51.85 115.82,53.26 116.58,53.69 117.35,52.36 118.11,52.42 118.87,52.05 119.64,53.01 120.40,53.17 121.17,53.23 121.93,52.98 122.70,53.35 123.46,52.49 124.23,53.20 124.99,52.28 125.76,53.05 126.52,53.50 127.29,53.90 128.05,53.25 128.81,52.60 129.58,53.42 130.34,53.55 131.11,53.70 131.87,51.81 132.64,53.12 133.40,53.46 134.17,53.36 134.93,53.37 135.70,52.05 136.46,53.20 137.23,54.08 137.99,53.99 138.75,53.15 139.52,51.99 140.28,53.31 141.05,53.33 141.81,53.49 142.58,52.97 143.34,52.40 144.11,53.43 144.87,53.76 145.64,53.01 146.40,53.03 147.17,51.95 147.93,51.74 148.69,53.54 149.46,53.34 150.22,52.80 150.99,51.50 151.75,52.06 152.52,54.54 153.28,54.09 154.05,54.42 154.81,54.00 155.58,54.93 156.34,54.50 157.11,54.90 157.87,54.80 158.63,53.95 159.40,54.30 160.16,54.68 160.93,55.01 161.69,54.35 162.46,54.03 163.22,54.11 163.99,54.52 164.75,54.55 165.52,54.71 166.28,53.80 167.05,53.88 167.81,54.45 168.57,54.22 169.34,53.59 170.10,53.64 170.87,53.28 171.63,54.07 172.40,53.66 173.16,53.95 173.93,53.42 174.69,52.99 175.46,54.07 176.22,54.38 176.98,54.92 177.75,54.05 178.51,53.62 179.28,53.81 180.04,54.59 180.81,54.39 181.57,53.74 182.34,53.23 183.10,54.24 183.87,54.45 184.63,54.28 185.40,53.82 186.16,52.99 186.92,53.30 187.69,53.12 188.45,54.04 189.22,52.92 189.98,53.93 190.75,53.79 191.51,53.42 192.28,53.48 193.04,53.10 193.81,53.85 194.57,53.98 195.34,52.78 196.10,53.26 196.86,53.02 197.63,53.79 198.39,53.44 199.16,53.54 199.92,53.83 200.69,52.48 201.45,54.28 202.22,54.26 202.98,53.93 203.75,53.75 204.51,53.37 205.28,53.52 206.04,53.84 206.80,53.38 207.57,52.99 208.33,52.78 209.10,53.30 209.86,53.92 210.63,54.20 211.39,54.57 212.16,53.26 212.92,53.19 213.69,52.96 214.45,53.19 215.22,53.73 215.98,52.95 216.74,53.83 217.51,52.39 218.27,52.84 219.04,53.19 219.80,53.48 220.57,53.08 221.33,53.30 222.10,53.70 222.86,53.26 223.63,53.27 224.39,52.58 225.16,53.55 225.92,53.24 226.68,53.28 227.45,53.89 228.21,52.49 228.98,53.62 229.74,53.82 230.51,53.49 231.27,53.20 232.04,52.00 232.80,53.00 233.57,52.63 234.33,51.63 235.10,52.78 235.86,53.25 236.62,53.09 237.39,52.96 238.15,51.91 238.92,53.12 239.68,53.84 240.45,52.85 241.21,53.18 241.98,52.69 242.74,51.97 243.51,52.32 244.27,54.62 245.04,55.22 245.80,54.77 246.56,54.43 247.33,54.34 248.09,54.84 248.86,54.59 249.62,53.43 250.39,54.55 251.15,53.26 251.92,53.70 252.68,54.13 253.45,52.98 254.21,53.21 254.97,52.78 255.74,53.75 256.50,54.01 257.27,53.46 258.03,53.12 258.80,52.90 259.56,53.25 260.33,54.01 261.09,52.95 261.86,53.40 262.62,52.76 263.39,53.25 264.15,54.01 264.91,53.49 265.68,53.01 266.44,52.62 267.21,52.47 267.97,52.57 268.74,53.51 269.50,53.24 270.27,52.02 271.03,53.77 271.80,52.37 272.56,53.47 273.33,53.42 274.09,52.81 274.85,52.60 275.62,52.48 276.38,53.60 277.15,52.81 277.91,53.38 278.68,52.10 279.44,53.45 280.21,53.34 280.97,52.72 281.74,53.16 282.50,52.21 283.27,52.34 284.03,52.64 284.79,53.06 285.56,52.18 286.32,52.89 287.09,53.01 287.85,52.38 288.62,53.24 289.38,51.57 290.15,52.57 290.91,51.50 291.68,51.60 292.44,51.74 293.21,52.60 293.97,53.08 294.73,52.58 295.50,52.77 296.26,52.54 297.03,52.99 297.79,53.46 298.56,52.75 299.32,52.67 300.09,51.33 300.85,51.65 301.62,52.27 302.38,51.30 303.15,52.67 303.91,51.26 304.67,52.69 305.44,52.87 306.20,52.94 306.97,52.43 307.73,52.10 308.50,52.80 309.26,52.74 310.03,52.29 310.79,52.37 311.56,51.71 312.32,53.16 313.09,52.66 313.85,53.28 314.61,52.76 315.38,52.08 316.14,53.00 316.91,52.91 317.67,52.91 318.44,52.80 319.20,51.69 319.97,52.75 320.73,53.46 321.50,53.19 322.26,52.99 323.03,51.33 323.79,52.45 324.55,51.72 325.32,52.76 326.08,53.31 326.85,52.91 327.61,52.24 328.38,51.17 329.14,51.59 329.91,51.03 330.67,52.70 331.44,53.11 332.20,52.63 332.96,52.66 333.73,51.12 334.49,51.00 335.26,50.93 336.02,54.14 336.79,54.53 337.55,54.33 338.32,52.98 339.08,54.91 339.85,54.19 340.61,52.53 341.38,54.09 342.14,52.84 342.90,55.20 343.67,54.21 344.43,54.05 345.20,52.72 345.96,54.53 346.73,53.84 347.49,54.49 348.26,52.19 349.02,53.90 349.79,52.59 350.55,53.53 351.32,51.37 352.08,53.73 352.84,54.59 353.61,53.62 354.37,53.80 355.14,51.18 355.90,53.39 356.67,53.78 357.43,51.41 358.20,52.73 358.96,50.75 359.73,52.77 360.49,52.12 361.26,52.60 362.02,51.08 362.78,52.86 363.55,52.50 364.31,53.03 365.08,50.98 365.84,52.93 366.61,52.83 367.37,53.77 368.14,51.11 368.90,53.71 369.67,52.33 370.43,52.57 371.20,50.23 371.96,52.56 372.72,52.99 373.49,52.31 374.25,51.99 375.02,49.98 375.78,53.16 376.55,53.71 377.31,53.01 378.08,52.59 378.84,49.74 379.61,51.67 380.37,51.92 381.14,49.99 381.90,53.31 382.66,52.36 383.43,53.67 384.19,51.49 384.96,54.42 385.72,55.09 386.49,55.30 387.25,55.68 388.02,53.52 388.78,56.03 389.55,55.74 390.31,54.32 391.08,53.84 391.84,51.97 392.60,53.51 393.37,52.37 394.13,52.93 394.90,48.86 395.66,51.24 396.43,50.45 397.19,49.08 397.96,51.49 398.72,50.66 399.49,50.85 400.25,48.47 401.02,50.80 401.78,49.91 402.54,50.52 403.31,47.42 404.07,50.35 404.84,49.55 405.60,50.07 406.37,47.77 407.13,50.42 407.90,50.07 408.66,50.85 409.43,47.76 410.19,51.00 410.95,51.43 411.72,49.61 412.48,50.05 413.25,48.34 414.01,50.74 414.78,50.11 415.54,51.02 416.31,48.87 417.07,51.34 417.84,51.52 418.60,51.91 419.37,50.04 420.13,52.44 420.89,52.10 421.66,52.57 422.42,51.23 423.19,53.16 423.95,53.16 424.72,53.41 425.48,51.98 426.25,52.57 427.01,50.87 427.78,53.90 428.54,53.46 429.31,52.17 430.07,54.96 430.83,52.67 431.60,53.64 432.36,50.56 433.13,51.60 433.89,50.05 434.66,51.66 435.42,50.99 436.19,51.34 436.95,48.89 437.72,50.12 438.48,49.68 439.25,47.64 440.01,48.43 440.77,46.30 441.54,49.88 442.30,49.47 443.07,48.93 443.83,48.90 444.60,46.17 445.36,47.72 446.13,47.89 446.89,45.50 447.66,47.03 448.42,44.60 449.19,48.75 449.95,48.79 450.71,48.60 451.48,47.86 452.24,46.08 453.01,48.02 453.77,47.55 454.54,48.21 455.30,45.73 456.07,48.21 456.83,49.12 457.60,47.37 458.36,48.19 459.13,46.65 459.89,49.06 460.65,48.33 461.42,47.14 462.18,48.91 462.95,49.09 463.71,48.98 464.48,49.48 465.24,48.20 466.01,50.36 466.77,51.37 467.54,51.89 468.30,51.12 469.07,50.14 469.83,52.08 470.59,53.11 471.36,52.29 472.12,52.57 472.89,50.70 473.65,53.04 474.42,52.72 475.18,51.61 475.95,52.69 476.71,51.33 477.48,54.62 478.24,55.03 479.01,54.53 479.77,53.79 480.53,52.61 481.30,52.14 482.06,54.87 482.83,54.80 483.59,54.58 484.36,53.96 485.12,51.57 485.89,54.44 486.65,54.65 487.42,54.28 488.18,53.45 488.94,50.62 489.71,52.70 490.47,52.15 491.24,52.62 492.00,50.28 492.77,52.47 493.53,51.92 494.30,50.41 495.06,49.92 495.83,47.11 496.59,47.81 497.36,46.44 498.12,47.60 498.88,46.71 499.65,45.11 500.41,46.18 501.18,44.28 501.94,46.13 502.71,46.26 503.47,45.45 504.24,45.83 505.00,44.20 505.77,46.72 506.53,47.79 507.30,47.21 508.06,48.56 508.82,45.12 509.59,48.44 510.35,48.71 511.12,49.34 511.88,46.89 512.65,50.42 513.41,49.88 514.18,50.93 514.94,48.40 515.71,51.94 516.47,51.14 517.24,53.01 518.00,50.01 518.76,48.46 519.53,53.74 520.29,55.09 521.06,54.05 521.82,54.37 522.59,52.70 523.35,55.69 524.12,54.89 524.88,55.31 525.65,52.71 526.41,55.52 527.18,55.76 527.94,54.62 528.70,55.28 529.47,52.02 530.23,54.66 531.00,53.75 531.76,54.93 532.53,52.61 533.29,54.83 534.06,54.63 534.82,54.68 535.59,53.12 536.35,54.56 537.12,54.60 537.88,55.35 538.64,53.48 539.41,55.29 540.17,55.49 540.94,55.89 541.70,55.28 542.47,53.62 543.23,54.55 544.00,54.66 544.76,55.07 545.53,53.19 546.29,54.96 547.06,54.60 547.82,53.75 548.58,53.02 549.35,54.86 550.11,55.23 550.88,54.83 551.64,54.51 552.41,52.68 553.17,53.55 553.94,53.73 554.70,53.79 555.47,52.40 556.23,53.65 556.99,53.48 557.76,53.97 558.52,52.50 559.29,53.77 560.05,53.17 560.82,52.64 561.58,52.93 562.35,54.16 563.11,54.26 563.88,53.96 564.64,53.74 565.41,52.75 566.17,53.33 566.93,53.89 567.70,53.94 568.46,53.42 569.23,52.64 569.99,53.41 570.76,54.23 571.52,53.72 572.29,53.70 573.05,52.53 573.82,53.52 574.58,53.40 575.35,53.00 576.11,52.60 576.87,53.67 577.64,53.55 578.40,52.71 579.17,52.20 579.93,53.85 580.70,54.07 581.46,53.50 582.23,52.31 582.99,53.17 583.76,53.28 584.52,53.61 585.29,53.65 586.05,53.12 586.81,53.35 587.58,53.50 588.34,53.88 589.11,53.72 589.87,52.77 590.64,53.68 591.40,53.88 592.17,53.45 592.93,53.09 593.70,52.98 594.46,52.97 595.23,53.61 595.99,53.60 596.75,53.12 597.52,52.35 598.28,53.07 599.05,53.70 599.81,53.50 600.58,53.02 601.34,52.42 602.11,53.46 602.87,52.97 603.64,53.48 604.40,52.46 605.17,53.32 605.93,52.87 606.69,53.48 607.46,53.12 608.22,52.46 608.99,53.54 609.75,53.01 610.52,52.73 611.28,55.13 612.05,55.60 612.81,54.89 613.58,55.62 614.34,55.29 615.11,54.80 615.87,54.33 616.63,55.06 617.40,54.80 618.16,55.31 618.93,54.47 619.69,54.63 620.46,54.84 621.22,54.70 621.99,53.96 622.75,55.02 623.52,55.03 624.28,54.69 625.05,55.08 625.81,53.67 626.57,54.80 627.34,55.04 628.10,54.15 628.87,54.72 629.63,53.18 630.40,54.18 631.16,54.55 631.93,54.68 632.69,54.65 633.46,53.70 634.22,54.33 634.98,53.44 635.75,54.28 636.51,54.45 637.28,53.78 638.04,53.18 638.81,53.85 639.57,54.05 640.34,54.43 641.10,54.33 641.87,53.01 642.63,54.06 643.40,54.75 644.16,54.49 644.92,54.02 645.69,54.07 646.45,55.61 647.22,54.83 647.98,54.99 648.75,55.83 649.51,55.30 650.28,56.48 651.04,54.95 651.81,54.80 652.57,54.19 653.34,52.90 654.10,55.24 654.86,54.63 655.63,56.55 656.39,54.81 657.16,57.25 657.92,56.09 658.69,58.28 659.45,56.03 660.22,58.50 660.98,58.70 661.75,58.89 662.51,57.67 663.28,59.76 664.04,59.73 664.80,59.24 665.57,58.27 666.33,60.53 667.10,60.36 667.86,60.51 668.63,59.35 669.39,58.88 670.16,61.97 670.92,61.80 671.69,61.63 672.45,58.81 673.22,62.38 673.98,62.97 674.74,62.65 675.51,59.45 676.27,62.40 677.04,62.48 677.80,62.90 678.57,59.21 679.33,62.40 680.10,63.25 680.86,63.69 681.63,59.68 682.39,63.28 683.16,62.66 683.92,62.39 684.68,58.93 685.45,62.51 686.21,62.00 686.98,61.19 687.74,57.77 688.51,61.54 689.27,61.00 690.04,60.74 690.80,56.46 691.57,58.75 692.33,58.39 693.10,56.15 693.86,53.04 694.62,51.78 695.39,51.28 696.15,57.77 696.92,50.72 697.68,54.13 698.45,53.82 699.21,54.47 699.98,51.25 700.74,51.10 701.51,50.27 702.27,48.37 703.04,52.53 703.80,53.13 704.56,53.78 705.33,53.75 706.09,51.00 706.86,52.75 707.62,52.53 708.39,52.30 709.15,52.30 709.92,49.84 710.68,51.72 711.45,51.15 712.21,50.38 712.97,51.19 713.74,49.04 714.50,50.41 715.27,51.10 716.03,51.54 716.80,49.18 717.56,51.29 718.33,51.73 719.09,51.02 719.86,50.92 720.62,48.68 721.39,50.43 722.15,50.65 722.91,48.82 723.68,50.51 724.44,50.81 725.21,49.69 725.97,50.48 726.74,48.78 727.50,51.32 728.27,50.44 729.03,50.34 729.80,48.29 730.56,50.51 731.33,50.25 732.09,50.46 732.85,48.68 733.62,50.87 734.38,51.49 735.15,50.92 735.91,51.94 736.68,48.33 737.44,51.74 738.21,51.67 738.97,51.07 739.74,51.31 740.50,47.85 741.27,51.48 742.03,50.94 742.79,49.96 743.56,50.08 744.32,48.49 745.09,50.99 745.85,51.85 746.62,51.11 747.38,52.70 748.15,49.84 748.91,52.51 749.68,52.48 750.44,52.40 751.21,52.32 751.97,49.63 752.73,51.73 753.50,52.03 754.26,52.72 755.03,50.06 755.79,53.69 756.56,53.81 757.32,53.15 758.09,53.86 758.85,49.96 759.62,52.97 760.38,50.12 761.15,52.21 761.91,51.89 762.67,53.54 763.44,50.38 764.20,53.11 764.97,53.25 765.73,52.29 766.50,53.31 767.26,50.43 768.03,53.67 768.79,53.36 769.56,50.49 770.32,53.82 771.09,52.93 771.85,54.85 772.61,52.74 773.38,55.26 774.14,54.81 774.91,54.13 775.67,54.81 776.44,52.96 777.20,54.29 777.97,54.73 778.73,55.20 779.50,53.46 780.26,56.65 781.03,54.85 781.79,55.56 782.55,52.75 783.32,55.62 784.08,55.78 784.85,54.75 785.61,55.69 786.38,53.75 787.14,55.82 787.91,56.00 788.67,55.16 789.44,54.91 790.20,53.16 790.96,55.66 791.73,54.91 792.49,54.82 793.26,54.66 794.02,52.00 794.79,56.42 795.55,54.79 796.32,56.98 797.08,56.50 797.85,55.31 798.61,56.00 799.38,54.04 800.14,56.46 800.90,55.46 801.67,56.44 802.43,54.00 803.20,55.69 803.96,56.47 804.73,56.47 805.49,57.10 806.26,55.04 807.02,56.36 807.79,58.28 808.55,56.93 809.32,56.94 810.08,55.16 810.84,56.36 811.61,56.41 812.37,55.20 813.14,56.82 813.90,55.01 814.67,56.37 815.43,55.96 816.20,56.40 816.96,53.75 817.73,55.43 818.49,55.93 819.26,57.80 820.02,53.92 820.78,56.08 821.55,55.97 822.31,55.74 823.08,53.95 823.84,55.79 824.61,55.85 825.37,54.11 826.14,55.43 826.90,54.01 827.67,55.08 828.43,55.71 829.20,55.34 829.96,54.78 830.72,53.20 831.49,55.37 832.25,55.51 833.02,56.21 833.78,53.38 834.55,55.60 835.31,55.68 836.08,55.16 836.84,55.00 837.61,53.76 838.37,55.09 839.14,55.48 839.90,55.55 840.66,54.89 841.43,53.34 842.19,54.38 842.96,55.55 843.72,54.35 844.49,54.91 845.25,53.24 846.02,56.44 846.78,55.49 847.55,54.98 848.31,54.97 849.08,54.26 849.84,55.60 850.60,55.08 851.37,54.52 852.13,54.71 852.90,53.76 853.66,55.27 854.43,54.93 855.19,55.31 855.96,55.47 856.72,53.43 857.49,54.18 858.25,53.80 859.02,54.09 859.78,53.01 860.54,55.81 861.31,55.22 862.07,54.57 862.84,53.25 863.60,55.48 864.37,54.22 865.13,54.61 865.90,53.29 866.66,54.74 867.43,54.21 868.19,54.39 868.95,53.06 869.72,54.04 870.48,54.39 871.25,55.40 872.01,53.05 872.78,54.74 873.54,54.02 874.31,54.82 875.07,52.50 875.84,54.75 876.60,53.85 877.37,54.13 878.13,51.71 878.89,53.69 879.66,54.02 880.42,52.75 881.19,53.40 881.95,51.70 882.72,53.19 883.48,52.23 884.25,52.96 885.01,50.25 885.78,49.71 886.54,54.44 887.31,54.33 888.07,54.61 888.83,51.91 889.60,54.74 890.36,53.16 891.13,53.21 891.89,50.86 892.66,52.46 893.42,52.57 894.19,51.84 894.95,49.98 895.72,52.16 896.48,52.43 897.25,49.78 898.01,51.90 898.77,49.52 899.54,51.90 900.30,51.34 901.07,49.92 901.83,52.67 902.60,48.43 903.36,51.67 904.13,50.32 904.89,50.95 905.66,46.96 906.42,49.88 907.19,48.64 907.95,49.57 908.71,46.52 909.48,49.86 910.24,49.09 911.01,47.51 911.77,48.31 912.54,46.26 913.30,48.93 914.07,47.01 914.83,45.42 915.60,47.59 916.36,47.45 917.13,48.21 917.89,46.13 918.65,48.01 919.42,48.07 920.18,48.99 920.95,45.96 921.71,49.19 922.48,49.56 923.24,49.18 924.01,48.56 924.77,46.06 925.54,49.05 926.30,48.97 927.07,49.26 927.83,50.03 928.59,47.13 929.36,47.98 930.12,49.23 930.89,46.46 931.65,49.08 932.42,46.73 933.18,49.82 933.95,49.37 934.71,49.32 935.48,47.31 936.24,49.06 937.01,48.73 937.77,50.75 938.53,47.61 939.30,50.39 940.06,49.70 940.83,47.92 941.59,50.35 942.36,49.60 943.12,50.77 943.89,47.76 944.65,49.93 945.42,50.16 946.18,50.71 946.94,51.30 947.71,48.46 948.47,50.29 949.24,50.58 950.00,48.56 950.77,49.89 951.53,48.08 952.30,50.65 953.06,50.02 953.83,49.28 954.59,50.70 955.36,47.82 956.12,50.69 956.88,50.89 957.65,50.60 958.41,50.85 959.18,48.81 959.94,50.35 960.71,50.91 961.47,51.20 962.24,51.04 963.00,49.21 963.77,51.11 964.53,50.90 965.30,49.75 966.06,50.62 966.82,51.84 967.59,51.91 968.35,51.73 969.12,50.58 969.88,51.83 970.65,51.64 971.41,52.18 972.18,51.96 972.94,52.74 973.71,53.08 974.47,54.38 975.24,54.48 976.00,56.00" fill="none" stroke="#0d6efd" stroke-width="2"/>
</svg>
